<?xml version="1.0" encoding="utf-8"?>
<svg width="119.672" height="44.301" viewBox="0 0 119.672 44.301" xmlns="http://www.w3.org/2000/svg">
  <defs>
    <style>.a{fill:none;}.b{fill:#abd6eb;}.c{clip-path:url(#a);}.d{fill:#fff;}.e{fill:#fab630;}.f{fill:#f5a055;}.g{fill:#f28f2b;}.h{fill:#2d9eba;}</style>
    <clipPath id="a">
      <rect class="a" width="119.672" height="44.301" transform="translate(2332.602 2049.958)"/>
    </clipPath>
  </defs>
  <g transform="translate(-2332.602 -2049.958)">
    <rect class="b" width="4.407" height="14.816" transform="translate(2447.866 2054.838)"/>
    <g class="c">
      <path class="d" d="M2345.866,2051.648l-1.966,3.832a5.021,5.021,0,0,0-3.278-1.26,2.636,2.636,0,0,0-1.451.428,1.321,1.321,0,0,0-.667,1.16,1.234,1.234,0,0,0,.415.908,2.63,2.63,0,0,0,.782.555q.365.152,1,.352l1.262.379a8.217,8.217,0,0,1,3.454,1.854,4.438,4.438,0,0,1,1.236,3.341,6.338,6.338,0,0,1-1.967,5.121,8.072,8.072,0,0,1-5.4,1.79,11.435,11.435,0,0,1-6.684-2.17l2.118-3.983a6.766,6.766,0,0,0,4.389,1.967,2.892,2.892,0,0,0,1.677-.493,1.616,1.616,0,0,0,.719-1.424q0-1.287-2.4-1.993c-.05-.016-.253-.075-.6-.177a18.372,18.372,0,0,1-2.144-.706,7.236,7.236,0,0,1-1.565-.919,3.22,3.22,0,0,1-1.108-1.5,6.614,6.614,0,0,1-.329-2.243,6.1,6.1,0,0,1,1.841-4.629,6.563,6.563,0,0,1,4.716-1.753,12.085,12.085,0,0,1,3.064.429,12.23,12.23,0,0,1,2.887,1.136" style="fill: rgb(6, 49, 70);"/>
      <path class="d" d="M2353.938,2054.572v4.741h.832c.47,0,.828,0,1.072-.013a5.116,5.116,0,0,0,.933-.138,2.042,2.042,0,0,0,.845-.352,1.93,1.93,0,0,0,.491-.681,2.641,2.641,0,0,0,.216-1.135,2.98,2.98,0,0,0-.2-1.173,2.055,2.055,0,0,0-.48-.719,1.724,1.724,0,0,0-.819-.366,6.56,6.56,0,0,0-.933-.138q-.391-.025-1.122-.026ZM2349,2069.6v-19.017h7.566a7.63,7.63,0,0,1,5.055,1.552,5.785,5.785,0,0,1,1.854,4.7q0,6.456-6.733,6.455h-2.8v6.306Z" style="fill: rgb(6, 49, 70);"/>
      <path class="d" d="M2379.006,2056.262a5.486,5.486,0,0,0-7.566,0,4.7,4.7,0,0,0-1.588,3.505,5.61,5.61,0,0,0,1.562,4.048,5.272,5.272,0,0,0,7.618,0,5.611,5.611,0,0,0,1.563-4.048,4.706,4.706,0,0,0-1.589-3.505m-8.927-5.081a11.432,11.432,0,0,1,10.289,0,10.011,10.011,0,0,1,3.883,3.493,9.042,9.042,0,0,1,1.489,5.069,10.52,10.52,0,1,1-21.034,0,9.04,9.04,0,0,1,1.489-5.069,10.007,10.007,0,0,1,3.884-3.493" style="fill: rgb(6, 49, 70);"/>
      <path class="d" d="M2392.977,2054.371v4.741h.48q3.429,0,3.43-2.37t-3.43-2.371Zm4.893,7.44,5.978,7.793h-6.155l-4.666-7.315h-.05v7.315h-4.942v-19.017h7.389a7.413,7.413,0,0,1,4.791,1.463,5.3,5.3,0,0,1,1.817,4.389,5.789,5.789,0,0,1-1.1,3.531,4.672,4.672,0,0,1-3.064,1.841" style="fill: rgb(6, 49, 70);"/>
    </g>
    <path class="d" d="M2412.749,2054.775V2069.6h-4.943v-14.829h-4.086v-4.188h13.115v4.188Z" style="fill: rgb(6, 49, 70);"/>
    <g class="c">
      <path class="e" d="M2376.362,2079.218v4.741h.833c.47,0,.828,0,1.072-.013a5.128,5.128,0,0,0,.933-.138,2.048,2.048,0,0,0,.845-.352,1.939,1.939,0,0,0,.491-.681,2.663,2.663,0,0,0,.213-1.137,2.951,2.951,0,0,0-.2-1.171,2.066,2.066,0,0,0-.479-.72,1.733,1.733,0,0,0-.819-.365,6.64,6.64,0,0,0-.934-.138c-.26-.017-.635-.026-1.121-.026Zm-4.944,15.03v-19.015h7.566a7.633,7.633,0,0,1,5.057,1.551,5.784,5.784,0,0,1,1.854,4.7q0,6.459-6.734,6.457h-2.8v6.3Z"/>
    </g>
    <path class="e" d="M2399.514,2075.233l-2.9,4.918-2.9-4.918h-6.079l6.079,8.851-7.44,10.164h5.977l4.363-6.2,3.985,6.2h5.952l-7.036-10.164,6.077-8.851Z"/>
    <path class="e" d="M2407.988,2075.233v19.015h10.87v-4.186h-5.928v-14.829Z"/>
    <path class="d" d="M2447.968,2075.242V2089.9h-5.843v4.306h10.148v-18.965Z" style="fill: rgb(6, 49, 70);"/>
    <path class="f" d="M2408.089,2094.259h10.662v-.011h-10.662Zm4.841-4.2h5.821v-.006h-5.821Z"/>
    <path class="g" d="M2408.089,2090.056v4.192h10.662v-4.186h-5.821v-.006Z"/>
    <rect class="h" width="10.252" height="4.306" transform="translate(2442.021 2050.585)"/>
    <rect class="h" width="1.26" height="12.305" transform="translate(2429.091 2066.224)"/>
    <rect class="h" width="12.305" height="1.262" transform="translate(2423.567 2071.746)"/>
  </g>
</svg>