<svg width="287" height="287" viewBox="0 0 287 287" fill="none" xmlns="http://www.w3.org/2000/svg">
<mask id="mask0_660_316" style="mask-type:alpha" maskUnits="userSpaceOnUse" x="0" y="0" width="287" height="287">
<rect width="287" height="287" fill="#D9D9D9"/>
</mask>
<g mask="url(#mask0_660_316)">
<path d="M107.625 107.625V83.7083H215.25V107.625H107.625ZM107.625 143.5V119.583H215.25V143.5H107.625ZM143.5 263.083H71.75C61.7847 263.083 53.3142 259.595 46.3385 252.62C39.3628 245.644 35.875 237.174 35.875 227.208V191.333H71.75V23.9166H251.125V131.841C247.139 131.442 243.103 131.591 239.017 132.289C234.931 132.987 230.995 134.232 227.208 136.026V47.8333H95.6667V191.333H167.417L143.5 215.25H59.7917V227.208C59.7917 230.596 60.9377 233.437 63.2297 235.729C65.5217 238.021 68.3618 239.167 71.75 239.167H143.5V263.083ZM167.417 263.083V226.311L233.486 160.541C235.28 158.747 237.273 157.451 239.466 156.654C241.658 155.857 243.85 155.458 246.043 155.458C248.434 155.458 250.726 155.907 252.919 156.804C255.111 157.7 257.104 159.046 258.898 160.84L269.959 171.901C271.554 173.695 272.8 175.688 273.696 177.88C274.593 180.073 275.042 182.265 275.042 184.457C275.042 186.65 274.643 188.892 273.846 191.184C273.049 193.476 271.753 195.519 269.959 197.312L204.189 263.083H167.417ZM185.354 245.146H196.715L232.889 208.673L227.507 202.993L221.827 197.611L185.354 233.785V245.146ZM227.507 202.993L221.827 197.611L232.889 208.673L227.507 202.993Z" fill="#1C1B1F"/>
</g>
</svg>
