<svg width="24" height="24" viewBox="0 0 24 24" fill="none" xmlns="http://www.w3.org/2000/svg">
<mask id="mask0_372_391" style="mask-type:alpha" maskUnits="userSpaceOnUse" x="0" y="0" width="24" height="24">
<rect width="23.7248" height="23.7248" fill="black"/>
</mask>
<g mask="url(#mask0_372_391)">
<path d="M2.96535 17.7936C2.42166 17.7936 1.95622 17.6 1.56905 17.2128C1.18187 16.8256 0.988281 16.3602 0.988281 15.8165C0.988281 15.2728 1.18187 14.8074 1.56905 14.4202C1.95622 14.033 2.42166 13.8394 2.96535 13.8394H3.22484C3.29898 13.8394 3.37724 13.8559 3.45962 13.8889L7.95746 9.39103C7.9245 9.30865 7.90803 9.23039 7.90803 9.15625V8.89676C7.90803 8.35306 8.10162 7.88763 8.48879 7.50045C8.87597 7.11328 9.3414 6.91969 9.8851 6.91969C10.4288 6.91969 10.8942 7.11328 11.2814 7.50045C11.6686 7.88763 11.8622 8.35306 11.8622 8.89676C11.8622 8.92971 11.8457 9.09447 11.8127 9.39103L14.3335 11.9118C14.4159 11.8788 14.4941 11.8624 14.5683 11.8624H15.0873C15.1614 11.8624 15.2397 11.8788 15.322 11.9118L18.8313 8.40249C18.7984 8.32011 18.7819 8.24185 18.7819 8.16771V7.90822C18.7819 7.36453 18.9755 6.89909 19.3627 6.51192C19.7499 6.12474 20.2153 5.93115 20.759 5.93115C21.3027 5.93115 21.7681 6.12474 22.1553 6.51192C22.5425 6.89909 22.7361 7.36453 22.7361 7.90822C22.7361 8.45192 22.5425 8.91735 22.1553 9.30453C21.7681 9.69171 21.3027 9.88529 20.759 9.88529H20.4995C20.4254 9.88529 20.3471 9.86882 20.2647 9.83587L16.7554 13.3452C16.7884 13.4275 16.8048 13.5058 16.8048 13.5799V13.8394C16.8048 14.3831 16.6113 14.8486 16.2241 15.2357C15.8369 15.6229 15.3715 15.8165 14.8278 15.8165C14.2841 15.8165 13.8186 15.6229 13.4315 15.2357C13.0443 14.8486 12.8507 14.3831 12.8507 13.8394V13.5799C12.8507 13.5058 12.8672 13.4275 12.9001 13.3452L10.3794 10.8244C10.297 10.8574 10.2187 10.8738 10.1446 10.8738H9.8851C9.85215 10.8738 9.68739 10.8574 9.39083 10.8244L4.893 15.3222C4.92595 15.4046 4.94242 15.4829 4.94242 15.557V15.8165C4.94242 16.3602 4.74883 16.8256 4.36166 17.2128C3.97448 17.6 3.50905 17.7936 2.96535 17.7936Z" fill="black"/>
</g>
</svg>
